<svg width="100" height="100" viewBox="0 0 100 100" fill="none" xmlns="http://www.w3.org/2000/svg">
<rect width="100" height="100" rx="20" fill="#FD3C0B"/>
<path d="M17.5 50H82.5" stroke="white" stroke-width="5" stroke-linecap="round" stroke-linejoin="round"/>
<path d="M75 32.5C75 31.1193 73.8807 30 72.5 30C71.1193 30 70 31.1193 70 32.5V67.5C70 68.8807 71.1193 70 72.5 70C73.8807 70 75 68.8807 75 67.5V32.5Z" stroke="white" stroke-width="5" stroke-linecap="round" stroke-linejoin="round"/>
<path d="M30 32.5C30 31.1193 28.8807 30 27.5 30C26.1193 30 25 31.1193 25 32.5V67.5C25 68.8807 26.1193 70 27.5 70C28.8807 70 30 68.8807 30 67.5V32.5Z" stroke="white" stroke-width="5" stroke-linecap="round" stroke-linejoin="round"/>
<path d="M17.5 41.25C17.5 40.5596 16.9404 40 16.25 40C15.5596 40 15 40.5596 15 41.25V58.75C15 59.4404 15.5596 60 16.25 60C16.9404 60 17.5 59.4404 17.5 58.75V41.25Z" stroke="white" stroke-width="5" stroke-linecap="round" stroke-linejoin="round"/>
<path d="M85 41.25C85 40.5596 84.4404 40 83.75 40C83.0596 40 82.5 40.5596 82.5 41.25V58.75C82.5 59.4404 83.0596 60 83.75 60C84.4404 60 85 59.4404 85 58.75V41.25Z" stroke="white" stroke-width="5" stroke-linecap="round" stroke-linejoin="round"/>
</svg>
